<?xml version="1.0" standalone="no"?>
<!DOCTYPE svg PUBLIC "-//W3C//DTD SVG 20010904//EN"
 "http://www.w3.org/TR/2001/REC-SVG-20010904/DTD/svg10.dtd">
<svg version="1.0" xmlns="http://www.w3.org/2000/svg"
 width="1024.000000pt" height="1024.000000pt" viewBox="0 0 1024.000000 1024.000000"
 preserveAspectRatio="xMidYMid meet">
<metadata>
Created by potrace 1.16, written by Peter Selinger 2001-2019
</metadata>
<g transform="translate(0.000000,1024.000000) scale(0.100000,-0.100000)"
fill="#000000" stroke="none">
<path d="M4415 8204 c-206 -33 -387 -134 -489 -272 -32 -44 -40 -49 -94 -59
-186 -35 -323 -186 -383 -423 -33 -131 -38 -378 -10 -531 34 -188 98 -358 228
-606 83 -157 123 -269 130 -359 9 -111 4 -120 -64 -128 -70 -8 -129 -40 -160
-84 -24 -36 -34 -66 -84 -245 -23 -86 -38 -122 -52 -130 -47 -27 -462 -308
-587 -396 -333 -237 -399 -358 -387 -711 8 -236 40 -365 168 -666 37 -88 77
-198 89 -244 12 -46 28 -97 37 -114 22 -45 90 -113 153 -153 104 -66 132 -102
151 -195 24 -111 69 -163 195 -226 137 -69 160 -95 188 -221 21 -93 36 -121
86 -163 51 -44 99 -58 219 -65 l96 -6 62 -67 c102 -110 222 -160 383 -160 71
0 175 16 227 35 8 3 1 30 -22 87 -19 46 -42 124 -51 173 -33 166 -16 534 30
690 8 25 12 45 11 45 -9 0 -96 -131 -123 -185 -25 -52 -68 -167 -86 -230 -3
-11 -3 50 -1 135 4 159 26 291 60 362 15 31 14 31 -25 -12 -44 -49 -128 -212
-153 -300 -24 -84 -57 -275 -63 -370 -10 -158 -14 -167 -35 -65 -32 158 -18
455 26 561 8 20 15 39 15 41 0 3 -24 -26 -54 -63 -56 -72 -130 -188 -152 -239
l-13 -30 -1 35 c-1 116 54 315 125 454 91 178 210 317 302 352 44 17 50 17
132 0 47 -9 113 -30 146 -46 l59 -28 156 80 c187 97 337 182 530 301 156 97
466 303 474 316 10 16 -157 557 -199 647 -42 88 -113 162 -230 241 -78 52
-185 113 -199 113 -7 0 49 -153 68 -185 l18 -30 -23 26 c-13 14 -86 102 -162
195 -180 221 -247 295 -258 288 -13 -8 -11 -131 5 -242 26 -175 27 -252 11
-637 -8 -209 -18 -470 -22 -580 l-7 -200 -14 65 c-28 130 -203 837 -230 929
l-27 95 -108 72 c-311 209 -589 509 -704 763 l-35 75 174 -169 c236 -232 426
-372 578 -427 30 -11 94 -22 143 -25 l87 -6 0 80 c0 131 48 281 115 361 42 50
87 57 197 30 66 -16 123 -23 195 -23 97 0 103 1 145 30 51 36 84 91 93 154 12
86 25 118 66 165 37 42 41 51 35 85 -5 33 -2 41 24 66 29 28 30 31 24 96 l-7
67 75 41 c82 45 105 65 108 96 4 35 1 40 -70 131 -88 111 -142 216 -148 288
-3 44 1 62 27 114 27 54 31 71 31 144 0 73 -10 169 -25 233 -4 18 3 22 61 33
75 14 167 58 219 103 69 61 124 162 140 257 l7 42 -45 -19 c-42 -18 -140 -41
-175 -41 -9 0 -5 8 11 20 63 50 126 164 141 256 l7 41 -73 -25 c-60 -21 -93
-25 -183 -26 -142 -1 -203 18 -434 134 -293 146 -408 179 -636 185 -82 2 -163
1 -180 -1z"/>
<path d="M7807 6357 c-32 -24 -116 -76 -185 -116 -70 -39 -133 -75 -141 -80
-14 -9 -16 -5 235 -396 119 -183 107 -171 141 -147 36 25 491 300 505 304 7 3
9 14 5 29 -7 28 -201 356 -226 382 -16 16 -18 15 -48 -27 -18 -25 -51 -57 -74
-73 -40 -26 -42 -27 -55 -8 -8 11 -31 54 -51 97 -21 43 -40 78 -43 78 -3 0
-32 -20 -63 -43z"/>
<path d="M7284 6039 c-19 -10 -20 -19 -20 -122 1 -124 -7 -153 -61 -229 -56
-77 -123 -104 -323 -129 -201 -24 -233 -32 -265 -67 -13 -14 -41 -68 -61 -119
-19 -51 -38 -93 -40 -93 -3 0 -2 9 1 20 8 26 7 26 -63 -14 -242 -137 -563
-428 -596 -542 -4 -14 -1 -28 10 -39 37 -37 241 12 421 101 136 67 153 85 154
168 1 33 5 75 9 91 l8 30 1 -30 c3 -88 -21 -442 -34 -515 -31 -166 -75 -225
-317 -422 -382 -313 -869 -631 -1273 -833 l-120 -60 -28 -85 c-94 -287 -115
-714 -47 -952 l11 -37 55 32 c89 51 275 195 459 356 191 167 416 383 1000 962
220 218 431 424 468 457 41 35 107 79 163 107 200 101 257 198 323 544 14 75
26 110 42 127 28 30 36 30 80 0 55 -37 80 -41 113 -15 26 20 28 27 24 73 -5
55 -44 151 -83 202 -33 44 -114 73 -232 84 -52 5 -97 10 -99 12 -7 8 36 68 60
83 14 9 42 19 63 22 32 4 46 -1 88 -31 28 -20 69 -46 92 -58 l43 -22 27 21
c16 11 29 32 31 47 8 62 -84 179 -164 208 -19 7 -34 15 -34 19 0 16 90 80 156
111 88 41 179 44 262 8 78 -34 82 -18 19 81 -58 92 -263 413 -281 442 -12 19
-13 19 -42 6z"/>
<path d="M6168 3296 l-198 -203 38 -7 c70 -11 387 -6 517 9 173 20 189 25 193
57 3 24 1 25 -65 31 -81 8 -179 32 -210 53 -30 19 -30 59 0 78 56 37 154 50
392 50 193 1 242 -2 303 -18 83 -21 126 -49 117 -76 -5 -17 -3 -18 42 -6 54
15 113 43 113 54 0 13 -23 37 -57 61 -106 72 -445 121 -828 120 l-160 0 -197
-203z"/>
<path d="M7350 3168 c-90 -32 -187 -48 -337 -55 l-143 -6 0 -196 0 -196 103 7
c162 11 354 58 422 102 25 16 25 17 25 191 0 96 -3 174 -7 174 -5 -1 -33 -10
-63 -21z"/>
<path d="M6585 2953 c-60 -12 -166 -16 -426 -17 l-347 -2 -212 -206 c-148
-144 -207 -207 -196 -211 53 -20 392 -47 601 -47 231 0 517 26 668 61 l47 11
0 214 0 214 -27 -1 c-16 -1 -64 -8 -108 -16z"/>
</g>
</svg>
